<svg id="Capa_1" enable-background="new 0 0 512 512" height="512" viewBox="0 0 512 512" width="512" xmlns="http://www.w3.org/2000/svg"><g><g><g><g><g><g><g><circle cx="256" cy="256" fill="#bfe1ff" r="256"/></g></g></g></g></g></g><path d="m510.625 282.694-115.796-115.795-270.55 262.766 76.326 76.326c17.838 3.934 36.374 6.009 55.395 6.009 132.37 0 241.276-100.466 254.625-229.306z" fill="#87c7ff"/><g><g><path d="m301.474 73.544h-157.23c-14.953 0-27.074 12.122-27.074 27.074v310.764c0 14.953 12.121 27.074 27.074 27.074h223.51c14.953 0 27.074-12.122 27.074-27.074v-244.483z" fill="#7584f2"/></g><g><path d="m301.474 73.544h-45.354v364.913h111.635c14.953 0 27.074-12.121 27.074-27.074v-244.484z" fill="#606aea"/></g><g><path d="m301.474 139.824c0 14.953 12.121 27.074 27.074 27.074h66.281l-93.355-93.355z" fill="#7584f2"/></g></g><g><g><path d="m177.81 219.007h156.38v30h-156.38z" fill="#fff"/></g><g><path d="m177.81 318.047h156.38v30h-156.38z" fill="#fff"/></g><g><path d="m177.81 367.568h69.565v30h-69.565z" fill="#fff"/></g><g><path d="m177.81 268.527h156.38v30h-156.38z" fill="#fff"/></g><g><path d="m256.12 219.007h78.069v30h-78.069z" fill="#e9edf5"/></g><g><path d="m256.12 318.047h78.069v30h-78.069z" fill="#e9edf5"/></g><g><path d="m256.12 268.527h78.069v30h-78.069z" fill="#e9edf5"/></g></g></g></svg>