<svg height="512pt" viewBox="0 0 512 512" width="512pt" xmlns="http://www.w3.org/2000/svg"><path d="m512 256c0 141.386719-114.613281 256-256 256s-256-114.613281-256-256 114.613281-256 256-256 256 114.613281 256 256zm0 0" fill="#9e69e2"/><path d="m512 256c0 26.050781-3.890625 51.191406-11.128906 74.871094-32.011719 104.847656-129.542969 181.128906-244.871094 181.128906-104.558594 0-194.488281-62.699219-234.230469-152.550781-14-31.628907-21.769531-66.628907-21.769531-103.449219 0-46.21875 12.25-89.570312 33.679688-127 44.121093 77.070312 127.160156 129 222.320312 129s178.210938-51.929688 222.320312-129c21.429688 37.429688 33.679688 80.78125 33.679688 127zm0 0" fill="#8e4fd2"/><path d="m30.742188 377.703125c7.15625 13.21875 15.429687 25.738281 24.71875 37.425781 46.898437 59.019532 119.300781 96.871094 200.539062 96.871094s153.640625-37.851562 200.539062-96.871094c9.289063-11.6875 17.5625-24.207031 24.71875-37.425781zm0 0" fill="#7038ba"/><path d="m228.996094 268.949219v67.359375c0 6.042968-4.90625 10.949218-10.949219 10.949218s-10.949219-4.90625-10.949219-10.949218v-67.359375c0-6.042969 4.90625-10.949219 10.949219-10.949219 6.046875 0 10.949219 4.90625 10.949219 10.949219zm0 0" fill="#fff"/><path d="m228.996094 268.949219v67.359375c0 6.042968-4.90625 10.949218-10.949219 10.949218v-89.257812c6.046875 0 10.949219 4.90625 10.949219 10.949219zm0 0" fill="#e4ebf8"/><path d="m266.949219 402.078125v109.691406c-3.628907.152344-7.277344.230469-10.949219.230469s-7.320312-.078125-10.949219-.230469v-109.691406c0-6.039063 4.910157-10.949219 10.949219-10.949219s10.949219 4.910156 10.949219 10.949219zm0 0" fill="#fff"/><path d="m266.949219 402.078125v109.691406c-3.628907.152344-7.277344.230469-10.949219.230469v-120.871094c6.039062 0 10.949219 4.910156 10.949219 10.949219zm0 0" fill="#c7d9ff"/><path d="m304.902344 268.949219v67.359375c0 6.042968-4.90625 10.949218-10.949219 10.949218s-10.949219-4.90625-10.949219-10.949218v-67.359375c0-6.042969 4.90625-10.949219 10.949219-10.949219s10.949219 4.90625 10.949219 10.949219zm0 0" fill="#e4ebf8"/><path d="m304.902344 268.949219v67.359375c0 6.042968-4.90625 10.949218-10.949219 10.949218v-89.257812c6.042969 0 10.949219 4.90625 10.949219 10.949219zm0 0" fill="#c7d9ff"/><path d="m317.316406 333.921875v53.097656c0 33.867188-27.457031 61.320313-61.320312 61.320313-.410156 0-.824219-.007813-1.234375-.015625-33.292969-.65625-60.078125-27.847657-60.078125-61.304688v-53.097656zm0 0" fill="#747e9e"/><path d="m317.316406 333.921875v53.097656c0 33.867188-27.457031 61.320313-61.320312 61.320313-.410156 0-.824219-.007813-1.234375-.015625-18.453125-14.59375-30.292969-37.179688-30.292969-62.53125v-51.871094zm0 0" fill="#474f6f"/><path d="m317.316406 333.921875v53.097656c0 33.867188-27.457031 61.320313-61.320312 61.320313v-114.417969zm0 0" fill="#323b5a"/><path d="m338.84375 331.53125v4.777344c0 9.261718-7.511719 16.773437-16.777344 16.773437h-132.136718c-9.261719 0-16.773438-7.511719-16.773438-16.773437v-4.777344c0-9.261719 7.511719-16.773438 16.773438-16.773438h132.140624c9.261719 0 16.773438 7.511719 16.773438 16.773438zm0 0" fill="#ffd112"/><path d="m338.84375 331.53125v4.777344c0 9.261718-7.511719 16.773437-16.777344 16.773437h-94.539062c-9.265625 0-16.777344-7.511719-16.777344-16.773437v-4.777344c0-9.261719 7.511719-16.773438 16.777344-16.773438h94.539062c9.265625 0 16.777344 7.511719 16.777344 16.773438zm0 0" fill="#ff9f00"/><path d="m338.84375 331.53125v4.777344c0 9.261718-7.511719 16.773437-16.777344 16.773437h-66.070312v-38.324219h66.070312c9.265625 0 16.777344 7.511719 16.777344 16.773438zm0 0" fill="#ed771b"/><path d="m350.128906 89.261719v87.734375c0 27.757812-22.503906 50.261718-50.261718 50.261718h-87.734376c-27.757812 0-50.261718-22.503906-50.261718-50.261718v-87.734375c0-27.757813 22.503906-50.261719 50.261718-50.261719h87.734376c27.757812 0 50.261718 22.503906 50.261718 50.261719zm0 0" fill="#fff"/><path d="m350.128906 89.261719v87.734375c0 27.757812-22.503906 50.261718-50.261718 50.261718h-43.867188v-188.257812h43.867188c27.757812 0 50.261718 22.503906 50.261718 50.261719zm0 0" fill="#e4ebf8"/><path d="m318.507812 133.128906c0 34.519532-27.980468 62.511719-62.507812 62.511719s-62.507812-27.992187-62.507812-62.511719c0-34.527344 27.980468-62.507812 62.507812-62.507812s62.507812 27.980468 62.507812 62.507812zm0 0" fill="#e4ebf8"/><path d="m318.507812 133.128906c0 34.519532-27.980468 62.511719-62.507812 62.511719v-125.019531c34.527344 0 62.507812 27.980468 62.507812 62.507812zm0 0" fill="#c7d9ff"/><path d="m247.710938 133.128906c0 8.511719-6.898438 15.410156-15.410157 15.410156-8.515625 0-15.414062-6.898437-15.414062-15.410156 0-8.515625 6.898437-15.414062 15.414062-15.414062 8.511719 0 15.410157 6.898437 15.410157 15.414062zm0 0" fill="#474f6f"/><path d="m295.113281 133.128906c0 8.511719-6.898437 15.410156-15.414062 15.410156-8.511719 0-15.410157-6.898437-15.410157-15.410156 0-8.515625 6.898438-15.414062 15.410157-15.414062 8.515625 0 15.414062 6.898437 15.414062 15.414062zm0 0" fill="#474f6f"/><path d="m202.242188 142.289062h-16.371094c-3.824219 0-6.925782-3.097656-6.925782-6.925781v-4.46875c0-3.824219 3.101563-6.925781 6.925782-6.925781h16.371094c3.828124 0 6.929687 3.101562 6.929687 6.925781v4.46875c-.003906 3.828125-3.105469 6.925781-6.929687 6.925781zm0 0" fill="#ffd112"/><path d="m326.695312 142.289062h-16.375c-3.824218 0-6.925781-3.097656-6.925781-6.925781v-4.46875c0-3.824219 3.101563-6.925781 6.925781-6.925781h16.375c3.824219 0 6.925782 3.101562 6.925782 6.925781v4.46875c0 3.828125-3.101563 6.925781-6.925782 6.925781zm0 0" fill="#ff9f00"/><path d="m137.863281 255.867188-47.417969 46.117187-28.96875-28.96875 38.195313-25.722656-20.265625-20.265625 64.171875-30.917969-27.539063 37.933594zm0 0" fill="#ffe955"/><path d="m137.863281 255.867188-47.417969 46.117187-14.210937-14.210937 42.140625-37.363282-19.226562-19.226562 44.429687-35.074219-27.539063 37.933594zm0 0" fill="#ffd112"/><path d="m374.136719 255.867188 47.417969 46.117187 28.96875-28.96875-38.195313-25.722656 20.265625-20.265625-64.171875-30.917969 27.539063 37.933594zm0 0" fill="#ffe955"/><path d="m374.136719 255.867188 47.417969 46.117187 14.210937-14.210937-42.140625-37.363282 19.226562-19.226562-44.429687-35.074219 27.539063 37.933594zm0 0" fill="#ffd112"/></svg>