<?xml version="1.0" encoding="iso-8859-1"?>
<!-- Generator: Adobe Illustrator 19.0.0, SVG Export Plug-In . SVG Version: 6.00 Build 0)  -->
<svg version="1.1" id="Capa_1" xmlns="http://www.w3.org/2000/svg" xmlns:xlink="http://www.w3.org/1999/xlink" x="0px" y="0px"
	 viewBox="0 0 512 512" style="enable-background:new 0 0 512 512;" xml:space="preserve">
<path style="fill:#E7ECED;" d="M435.2,17.067H76.8H34.142c-14.14,0-25.609,11.469-25.609,25.609v298.658H76.8h128h102.4h128h68.267
	V42.675c0-14.14-11.469-25.609-25.609-25.609H435.2z"/>
<path style="fill:#AFB6BB;" d="M477.858,392.533H34.142c-14.14,0-25.609-11.469-25.609-25.609v-42.658h494.933v42.658
	C503.467,381.065,491.998,392.533,477.858,392.533z"/>
<rect x="42.667" y="51.2" style="fill:#EBBA16;" width="426.667" height="273.067"/>
<path style="fill:#AFB6BB;" d="M366.933,494.933H145.067c-9.429,0-17.067-7.637-17.067-17.067l0,0
	c0-9.429,7.637-17.067,17.067-17.067h221.867c9.429,0,17.067,7.637,17.067,17.067l0,0C384,487.296,376.363,494.933,366.933,494.933z
	"/>
<path style="fill:#6C797A;" d="M298.667,392.533h-85.333c0,37.734-13.466,68.267-51.2,68.267h187.733
	C312.132,460.8,298.667,430.268,298.667,392.533z"/>
<circle style="fill:#FFFFFF;" cx="256" cy="187.733" r="102.4"/>
<g>
	<path style="fill:#4D007E;" d="M503.467,332.8H8.533c-4.71,0-8.533-3.823-8.533-8.533V42.675C0,23.851,15.317,8.533,34.142,8.533
		h443.716C496.683,8.533,512,23.851,512,42.675v281.591C512,328.977,508.177,332.8,503.467,332.8z M17.067,315.733h477.867V42.675
		c0-9.421-7.663-17.075-17.075-17.075H34.142c-9.412,0-17.075,7.654-17.075,17.075V315.733z"/>
	<path style="fill:#4D007E;" d="M477.858,401.067H34.142C15.317,401.067,0,385.749,0,366.925v-42.658
		c0-4.71,3.823-8.533,8.533-8.533h494.933c4.71,0,8.533,3.823,8.533,8.533v42.658C512,385.749,496.683,401.067,477.858,401.067z
		 M17.067,332.8v34.125c0,9.421,7.663,17.075,17.075,17.075h443.716c9.412,0,17.075-7.654,17.075-17.075V332.8H17.067z"/>
	<path style="fill:#4D007E;" d="M281.6,366.933h-51.2c-4.71,0-8.533-3.823-8.533-8.533s3.823-8.533,8.533-8.533h51.2
		c4.71,0,8.533,3.823,8.533,8.533S286.31,366.933,281.6,366.933z"/>
	<path style="fill:#4D007E;" d="M469.333,332.8H42.667c-4.71,0-8.533-3.823-8.533-8.533V51.2c0-4.71,3.823-8.533,8.533-8.533
		h426.667c4.71,0,8.533,3.823,8.533,8.533v273.067C477.867,328.977,474.044,332.8,469.333,332.8z M51.2,315.733h409.6v-256H51.2
		V315.733z"/>
	<path style="fill:#4D007E;" d="M366.933,503.467H145.067c-14.114,0-25.6-11.486-25.6-25.6s11.486-25.6,25.6-25.6h221.867
		c14.114,0,25.6,11.486,25.6,25.6S381.047,503.467,366.933,503.467z M145.067,469.333c-4.71,0-8.533,3.831-8.533,8.533
		c0,4.702,3.823,8.533,8.533,8.533h221.867c4.71,0,8.533-3.831,8.533-8.533c0-4.702-3.823-8.533-8.533-8.533H145.067z"/>
	<path style="fill:#4D007E;" d="M349.867,469.333H162.133c-4.71,0-8.533-3.823-8.533-8.533s3.823-8.533,8.533-8.533
		c28.314,0,42.667-20.096,42.667-59.733c0-4.71,3.823-8.533,8.533-8.533h85.333c4.71,0,8.533,3.823,8.533,8.533
		c0,39.637,14.353,59.733,42.667,59.733c4.71,0,8.533,3.823,8.533,8.533S354.577,469.333,349.867,469.333z M203.699,452.267h104.61
		c-10.513-11.639-16.7-28.971-17.937-51.2h-68.736C220.39,423.296,214.204,440.627,203.699,452.267z"/>
	<path style="fill:#4D007E;" d="M256,298.667c-61.167,0-110.933-49.766-110.933-110.933S194.833,76.8,256,76.8
		s110.933,49.766,110.933,110.933S317.167,298.667,256,298.667z M256,93.867c-51.755,0-93.867,42.112-93.867,93.867
		S204.245,281.6,256,281.6s93.867-42.112,93.867-93.867S307.755,93.867,256,93.867z"/>
	<path style="fill:#4D007E;" d="M213.333,221.867c-2.185,0-4.369-0.836-6.033-2.5l-25.6-25.6c-3.337-3.337-3.337-8.73,0-12.066
		l25.6-25.6c3.328-3.337,8.738-3.337,12.066,0c3.337,3.337,3.337,8.73,0,12.066l-19.567,19.567l19.567,19.567
		c3.337,3.337,3.337,8.73,0,12.066C217.702,221.03,215.518,221.867,213.333,221.867z"/>
	<path style="fill:#4D007E;" d="M298.667,221.867c-2.185,0-4.369-0.836-6.033-2.5c-3.337-3.337-3.337-8.73,0-12.066l19.567-19.567
		l-19.567-19.567c-3.337-3.337-3.337-8.73,0-12.066c3.328-3.337,8.738-3.337,12.066,0l25.6,25.6c3.337,3.337,3.337,8.73,0,12.066
		l-25.6,25.6C303.036,221.03,300.851,221.867,298.667,221.867z"/>
	<path style="fill:#4D007E;" d="M238.933,247.467c-0.896,0-1.809-0.145-2.697-0.444c-4.471-1.493-6.886-6.323-5.402-10.795
		l34.133-102.4c1.493-4.463,6.349-6.878,10.795-5.393c4.471,1.493,6.886,6.323,5.402,10.795l-34.133,102.4
		C245.837,245.205,242.509,247.467,238.933,247.467z"/>
	<path style="fill:#4D007E;" d="M76.8,128c-4.71,0-8.533-3.823-8.533-8.533V85.333c0-4.71,3.823-8.533,8.533-8.533h34.133
		c4.71,0,8.533,3.823,8.533,8.533c0,4.71-3.823,8.533-8.533,8.533h-25.6v25.6C85.333,124.177,81.51,128,76.8,128z"/>
	<path style="fill:#4D007E;" d="M435.2,298.667h-34.133c-4.71,0-8.533-3.823-8.533-8.533c0-4.71,3.823-8.533,8.533-8.533h25.6V256
		c0-4.71,3.823-8.533,8.533-8.533s8.533,3.823,8.533,8.533v34.133C443.733,294.844,439.91,298.667,435.2,298.667z"/>
</g>
<g>
</g>
<g>
</g>
<g>
</g>
<g>
</g>
<g>
</g>
<g>
</g>
<g>
</g>
<g>
</g>
<g>
</g>
<g>
</g>
<g>
</g>
<g>
</g>
<g>
</g>
<g>
</g>
<g>
</g>
</svg>
