<svg id="Capa_1" enable-background="new 0 0 512 512" height="512" viewBox="0 0 512 512" width="512" xmlns="http://www.w3.org/2000/svg"><g><g id="Hangouts_1_"><g><path d="m256 512c-3.223 0-6.401-2.04-9.038-4.018-3.75-2.842-5.962-6.28-5.962-10.982v-45.498c-117.1-7.749-211-106.483-211-225.502 0-124.072 101.928-226 226-226s226 101.928 226 226c0 218.789-219.672 284.799-221.884 285.429-1.347.381-2.739.571-4.116.571z" fill="#59c36a"/></g></g><path d="m260.116 511.429c2.212-.63 221.884-66.64 221.884-285.429 0-124.072-101.928-226-226-226v512c1.377 0 2.769-.19 4.116-.571z" fill="#00a66c"/><g><path d="m226 151h-90c-8.291 0-15 6.709-15 15v90c0 8.291 6.709 15 15 15h74.507c-1.227 13.491-8.919 25.433-21.216 31.582-7.412 3.706-10.415 12.715-6.709 20.127 2.637 5.259 7.925 8.291 13.433 8.291 2.256 0 4.541-.513 6.694-1.582 23.613-11.821 38.291-35.566 38.291-61.963 0-6.441 0-104.536 0-101.455 0-8.291-6.709-15-15-15z" fill="#fff5f5"/><path d="m376 151h-90c-8.291 0-15 6.709-15 15v90c0 8.291 6.709 15 15 15h74.507c-1.227 13.491-8.919 25.433-21.216 31.582-7.412 3.706-10.415 12.715-6.709 20.127 2.637 5.259 7.925 8.291 13.433 8.291 2.256 0 4.541-.513 6.694-1.582 23.613-11.821 38.291-35.566 38.291-61.963 0-6.441 0-104.536 0-101.455 0-8.291-6.709-15-15-15z" fill="#e3e7ea"/></g></g></svg>