<?xml version="1.0" encoding="utf-8"?>
<!-- Generator: Adobe Illustrator 24.1.3, SVG Export Plug-In . SVG Version: 6.00 Build 0)  -->
<svg version="1.1" id="Capa_1" xmlns="http://www.w3.org/2000/svg" xmlns:xlink="http://www.w3.org/1999/xlink" x="0px" y="0px"
	 viewBox="0 0 512 512" style="enable-background:new 0 0 512 512;" xml:space="preserve">
<style type="text/css">
	.st0{fill:#E6CCFF;}
	.st1{fill:url(#SVGID_1_);}
	.st2{fill:url(#SVGID_2_);}
	.st3{fill:url(#SVGID_3_);}
	.st4{fill:#FEFEFE;}
</style>
<circle class="st0" cx="256" cy="256" r="256"/>
<g>
	<g>
		
			<image style="overflow:visible;opacity:0.35;" width="326" height="224" xlink:href="EBD7EFE5.png"  transform="matrix(1 0 0 1 93 188)">
		</image>
		<g>
			<linearGradient id="SVGID_1_" gradientUnits="userSpaceOnUse" x1="256" y1="401.1873" x2="256" y2="190.0309">
				<stop  offset="0" style="stop-color:#351465"/>
				<stop  offset="1" style="stop-color:#8753D4"/>
			</linearGradient>
			<path class="st1" d="M112.1,314.8c0,0-28.2-20.6-0.7-39.1l120.5-80.4c0,0,14.3-10.8,44.8-1.7l119.1,78.9c0,0,35.1,16.2,4.3,42.3
				l-117,78c0,0-26.2,20.6-63.9-3L112.1,314.8z"/>
		</g>
	</g>
	<g>
		
			<image style="overflow:visible;opacity:0.35;" width="326" height="224" xlink:href="EBD7EFE7.png"  transform="matrix(1 0 0 1 93 150)">
		</image>
		<g>
			<linearGradient id="SVGID_2_" gradientUnits="userSpaceOnUse" x1="256" y1="363.5981" x2="256" y2="152.4417">
				<stop  offset="0" style="stop-color:#471B85"/>
				<stop  offset="1" style="stop-color:#8753D4"/>
			</linearGradient>
			<path class="st2" d="M112.1,277.2c0,0-28.2-20.6-0.7-39.1l120.5-80.4c0,0,14.3-10.8,44.8-1.7l119.1,78.9c0,0,35.1,16.2,4.3,42.3
				l-117,78c0,0-26.2,20.6-63.9-3L112.1,277.2z"/>
		</g>
	</g>
	<g>
		
			<image style="overflow:visible;opacity:0.35;" width="326" height="224" xlink:href="EBD7EFE2.png"  transform="matrix(1 0 0 1 93 108)">
		</image>
		<g>
			<linearGradient id="SVGID_3_" gradientUnits="userSpaceOnUse" x1="256" y1="321.9691" x2="256" y2="110.8127">
				<stop  offset="0" style="stop-color:#5723A2"/>
				<stop  offset="1" style="stop-color:#8753D4"/>
			</linearGradient>
			<path class="st3" d="M112.1,235.6c0,0-28.2-20.6-0.7-39.1l120.5-80.4c0,0,14.3-10.8,44.8-1.7l119.1,78.9c0,0,35.1,16.2,4.3,42.3
				l-117,78c0,0-26.2,20.6-63.9-3L112.1,235.6z"/>
		</g>
	</g>
	<path class="st4" d="M196.4,195.1c5.9-3.7,11.7-7.7,17.5-11.7c3.9-2.3,7.4-5.2,11.5-7.3c11.2-5.7,22.9-7.6,35.1-3.7
		c6.7,2.2,12.5,5.7,15.7,12.3c2.3,5.8,1.2,10.9-3.1,15.4c1,0.3,1.4-0.2,1.9-0.4c9.5-4.4,19.2-5.6,29.4-3c0.2,0.1,0.5,0,0.7,0
		c4.3,1.5,8.4,3.3,12.1,6c3.8,2.9,6.9,6.3,8.6,10.9c0.8,3.3,0.5,6.5-0.6,9.7c-2.9,6.5-8,11.1-13.7,15c-7.1,4.9-14.4,9.7-21.5,14.6
		c-4.3,2.8-8.6,5.5-12.7,8.5c-1.7,1.2-2.8,0.9-4.2-0.2c-3.8-3-8-5.6-12-8.2c-0.1-0.1-0.3-0.2-0.4-0.3c-0.1-0.1-0.2-0.1-0.3-0.2
		c-8.1-5.5-16.2-10.9-24.3-16.4c-5.7-3.9-11.5-7.7-17.3-11.5c-6.4-4.4-12.9-8.7-19.3-13.1c-1-0.7-2-1.3-3-1.9
		c-3.5-2.4-7.1-4.9-10.7-7.3C189.4,200,192.9,197.6,196.4,195.1z M265.2,214.1c-4,2.5-7.9,5.2-11.8,7.9c-2.3,1.5-4.6,3.1-7,4.6
		c-1.2,0.7-0.8,1.1,0.1,1.7c9.8,6.5,19.5,13.1,29.3,19.7c0.8,0.5,1.3,0.5,2,0c7.6-5.2,15.3-10.3,23-15.6c2.8-1.9,5.4-4.1,7.3-7.1
		c3.7-5,2.9-10.4-2.1-14.2c-4.4-4-9.7-6.1-15.6-6.2C280.7,204.7,272.7,208.8,265.2,214.1z M215.4,195.9c-2.4,1.6-4.8,3.3-7.3,4.8
		c-1.2,0.8-1.1,1.2,0,1.9c8.8,5.9,17.6,11.8,26.4,17.7c0.9,0.6,1.4,0.4,2.2-0.1c2.8-1.9,5.6-3.8,8.4-5.7c4.7-3.2,9.7-6.1,13.9-10
		c2.5-2.3,4.8-4.8,5.6-8.3c1.2-4.6-1.2-7.7-4.5-10.2c-7.6-5.8-15.9-6.2-24.5-2.7C228.2,186.3,222,191.5,215.4,195.9z"/>
</g>
</svg>
